<?xml version="1.0" encoding="utf-8"?>
<!-- Generator: Adobe Illustrator 19.0.0, SVG Export Plug-In . SVG Version: 6.00 Build 0)  -->
<svg version="1.1" id="Layer_1" xmlns="http://www.w3.org/2000/svg" xmlns:xlink="http://www.w3.org/1999/xlink" x="0px" y="0px"
	 viewBox="337 -178.5 793 477.5" style="enable-background:new 337 -178.5 793 477.5;" xml:space="preserve">
<style type="text/css">
	.st0{fill:none;stroke:#659DF7;stroke-width:9;stroke-miterlimit:10;}
	.st1{fill:#FFFFFF;stroke:#FFD44D;stroke-width:9;stroke-miterlimit:10;}
	.st2{fill:#FFD44C;}
	.st3{font-family:'Verdana';}
	.st4{font-size:32px;}
	.st5{font-size:55px;}
</style>
<path class="st0" d="M1118.8,294.5H348.2c-3.7,0-6.7-3-6.7-6.7v-455.1c0-3.7,3-6.7,6.7-6.7h770.6c3.7,0,6.7,3,6.7,6.7v455.1
	C1125.5,291.5,1122.5,294.5,1118.8,294.5z"/>
<line class="st0" x1="341.5" y1="-149.7" x2="1125.5" y2="-149.7"/>
<rect x="534.2" y="-47.3" class="st0" width="221.6" height="215.2"/>
<g>
	<rect x="791.2" y="-47.3" class="st0" width="141.6" height="215.2"/>
	<line class="st0" x1="791.2" y1="-24" x2="932.8" y2="-24"/>
	<line class="st0" x1="791.2" y1="-0.7" x2="932.8" y2="-0.7"/>
	<line class="st0" x1="791.2" y1="22.8" x2="932.8" y2="22.8"/>
	<line class="st0" x1="791.2" y1="47" x2="932.8" y2="47"/>
	<line class="st0" x1="791.2" y1="70.3" x2="932.8" y2="70.3"/>
	<line class="st0" x1="791.2" y1="94.6" x2="932.8" y2="94.6"/>
	<line class="st0" x1="791.2" y1="118.9" x2="932.8" y2="118.9"/>
	<line class="st0" x1="791.2" y1="143.8" x2="932.8" y2="143.8"/>
</g>
<rect x="649.1" y="141.3" class="st1" width="438.8" height="116"/>
<text transform="matrix(1 0 0 1 779.1173 193.0101)" class="st2 st3 st4">HTML  CSS </text>
<rect x="379.1" y="141.3" class="st1" width="240" height="116"/>
<text transform="matrix(1 0 0 1 397.1173 210.7818)" class="st2 st3 st4">View Project</text>
<g>
	<text transform="matrix(1 3.200000e-04 -3.200000e-04 1 564.3948 -74.8903)" class="st2 st3 st5">City Search</text>
</g>
<text transform="matrix(1 0 0 1 706.1172 233.7675)" class="st2 st3 st4">JavaScript  Anime.js</text>
</svg>
