<?xml version="1.0" encoding="utf-8"?>
<!-- Generator: Adobe Illustrator 19.0.0, SVG Export Plug-In . SVG Version: 6.00 Build 0)  -->
<svg version="1.1" id="Layer_1" xmlns="http://www.w3.org/2000/svg" xmlns:xlink="http://www.w3.org/1999/xlink" x="0px" y="0px"
	 viewBox="0 0 793 477.5" style="enable-background:new 0 0 793 477.5;" xml:space="preserve">
<style type="text/css">
	.st0{fill:none;stroke:#659DF7;stroke-width:9;stroke-miterlimit:10;}
	.st1{fill:#FFD44C;}
	.st2{font-family:'Verdana';}
	.st3{font-size:55px;}
	.st4{fill:#FFFFFF;stroke:#FFD44D;stroke-width:9;stroke-miterlimit:10;}
	.st5{font-size:32px;}
</style>
<path class="st0" d="M781.8,473H11.2c-3.7,0-6.7-3-6.7-6.7V11.2c0-3.7,3-6.7,6.7-6.7h770.6c3.7,0,6.7,3,6.7,6.7v455.1
	C788.5,470,785.5,473,781.8,473z"/>
<line class="st0" x1="4.5" y1="28.8" x2="788.5" y2="28.8"/>
<g>
	<text transform="matrix(1 -6.110000e-03 6.110000e-03 1 221.4788 159.6983)" class="st1 st2 st3">Drawing App</text>
</g>
<rect x="153" y="83" class="st0" width="487" height="289.7"/>
<rect x="313.6" y="318.8" class="st4" width="438.8" height="116"/>
<rect x="43.5" y="318.8" class="st4" width="240" height="116"/>
<text transform="matrix(1 0 0 1 61.555 388.2818)" class="st1 st2 st5">View Project</text>
<text transform="matrix(1 0 0 1 346.555 365.8012)" class="st1 st2 st5">HTML  CSS  JavaScript</text>
<text transform="matrix(1 0 0 1 332.555 410.7625)" class="st1 st2 st5">Hapi.js  Node.js  Heroku</text>
</svg>
