<?xml version="1.0" encoding="utf-8"?>
<!-- Generator: Adobe Illustrator 19.0.0, SVG Export Plug-In . SVG Version: 6.00 Build 0)  -->
<svg version="1.1" id="Layer_1" xmlns="http://www.w3.org/2000/svg" xmlns:xlink="http://www.w3.org/1999/xlink" x="0px" y="0px"
	 viewBox="674 -357 793 477.5" style="enable-background:new 674 -357 793 477.5;" xml:space="preserve">
<style type="text/css">
	.st0{fill:none;stroke:#659DF7;stroke-width:9;stroke-miterlimit:10;}
	.st1{fill:#FFFFFF;stroke:#FFD44D;stroke-width:9;stroke-miterlimit:10;}
	.st2{fill:#FFD44C;}
	.st3{font-family:'Verdana';}
	.st4{font-size:32px;}
	.st5{font-size:55px;}
	.st6{fill:#FFFFFF;stroke:#659DF7;stroke-width:9;stroke-miterlimit:10;}
</style>
<path class="st0" d="M1455.8,116H685.2c-3.7,0-6.7-3-6.7-6.7v-455.1c0-3.7,3-6.7,6.7-6.7h770.6c3.7,0,6.7,3,6.7,6.7v455.1
	C1462.5,113,1459.5,116,1455.8,116z"/>
<line class="st0" x1="678.5" y1="-328.2" x2="1462.5" y2="-328.2"/>
<rect x="713.8" y="-33.2" class="st1" width="240" height="116"/>
<text transform="matrix(1 0 0 1 734.7683 35.5103)" class="st2 st3 st4">View Project</text>
<g>
	<text transform="matrix(1 -3.610000e-03 3.610000e-03 1 838.3817 -231.9397)" class="st2 st3 st5">React Stopwatch</text>
</g>
<rect x="987" y="-33.2" class="st1" width="438.8" height="116"/>
<text transform="matrix(1 0 0 1 1067.5004 14.5102)" class="st2 st3 st4">React   JavaScript</text>
<rect x="932.4" y="-183.2" class="st6" width="264.6" height="106.4"/>
<rect x="962" y="-161.5" class="st0" width="205.3" height="22.5"/>
<text transform="matrix(1 0 0 1 1100.2527 58.78)" class="st2 st3 st4"> HTML   CSS</text>
<rect x="987" y="-117.3" class="st0" width="37.9" height="17.2"/>
<rect x="1045" y="-117.3" class="st0" width="37.9" height="17.2"/>
<rect x="1103.3" y="-117.3" class="st0" width="37.9" height="17.2"/>
</svg>
