<?xml version="1.0" encoding="utf-8"?>
<!-- Generator: Adobe Illustrator 19.0.0, SVG Export Plug-In . SVG Version: 6.00 Build 0)  -->
<svg version="1.1" id="Layer_1" xmlns="http://www.w3.org/2000/svg" xmlns:xlink="http://www.w3.org/1999/xlink" x="0px" y="0px"
	 viewBox="337 -178.5 793 477.5" style="enable-background:new 337 -178.5 793 477.5;" xml:space="preserve">
<style type="text/css">
	.st0{fill:none;stroke:#659DF7;stroke-width:9;stroke-miterlimit:10;}
	.st1{fill:#FFFFFF;stroke:#FFD44D;stroke-width:9;stroke-miterlimit:10;}
	.st2{enable-background:new    ;}
	.st3{fill:#FFD44C;}
	.st4{fill:#FFFFFF;stroke:#659DF7;stroke-width:9;stroke-miterlimit:10;}
	.st5{font-family:'Verdana';}
	.st6{font-size:32px;}
	.st7{font-size:55px;}
</style>
<path class="st0" d="M1118.8,294.5H348.2c-3.7,0-6.7-3-6.7-6.7v-455.1c0-3.7,3-6.7,6.7-6.7h770.6c3.7,0,6.7,3,6.7,6.7v455.1
	C1125.5,291.5,1122.5,294.5,1118.8,294.5z"/>
<line class="st0" x1="341.5" y1="-149.7" x2="1125.5" y2="-149.7"/>
<rect x="389.6" y="606.6" class="st1" width="240" height="116"/>
<text transform="matrix(1 0 0 1 409.555 677.3715)" class="st3" style="font-family:'MyriadPro-Semibold'; font-size:37.0829px;">View Project</text>
<ellipse class="st4" cx="540.2" cy="60" rx="60.2" ry="59.6"/>
<ellipse class="st4" cx="733.5" cy="60" rx="106.7" ry="105.7"/>
<rect x="662.8" y="606.6" class="st1" width="438.8" height="116"/>
<text transform="matrix(1 0 0 1 706.8337 677.3712)" class="st3" style="font-family:'MyriadPro-Semibold'; font-size:37.0829px;">HTML, CSS, JavaScript</text>
<line class="st0" x1="680.7" y1="197.3" x2="786.3" y2="197.3"/>
<line class="st0" x1="664.5" y1="158.3" x2="802.5" y2="158.3"/>
<line class="st0" x1="655.5" y1="178.3" x2="811.5" y2="178.3"/>
<rect x="377.5" y="143.3" class="st1" width="240" height="116"/>
<text transform="matrix(1 0 0 1 397.4505 211.0103)" class="st3 st5 st6">View Project</text>
<g>
	<text transform="matrix(1 1.230000e-03 -1.230000e-03 1 565.2289 -75.0742)" class="st3 st5 st7">Welcome In</text>
</g>
<rect x="650.7" y="143.3" class="st1" width="438.8" height="116"/>
<text transform="matrix(1 0 0 1 691.7292 193.0101)" class="st3 st5 st6">HTML  CSS  JavaScript</text>
<ellipse class="st4" cx="925.3" cy="57.3" rx="60.2" ry="59.6"/>
<text transform="matrix(1 0 0 1 674.7224 235.0101)" class="st3 st5 st6">Heroku Sass Handlebars</text>
</svg>
