<?xml version="1.0" encoding="utf-8"?>
<!-- Generator: Adobe Illustrator 19.0.0, SVG Export Plug-In . SVG Version: 6.00 Build 0)  -->
<svg version="1.1" id="Layer_1" xmlns="http://www.w3.org/2000/svg" xmlns:xlink="http://www.w3.org/1999/xlink" x="0px" y="0px"
	 viewBox="1011 -535.5 793 477.5" style="enable-background:new 1011 -535.5 793 477.5;" xml:space="preserve">
<style type="text/css">
	.st0{fill:none;stroke:#659DF7;stroke-width:9;stroke-miterlimit:10;}
	.st1{fill:#FFFFFF;stroke:#659DF7;stroke-width:9;stroke-miterlimit:10;}
	.st2{fill:#FFFFFF;stroke:#FFD44D;stroke-width:9;stroke-miterlimit:10;}
	.st3{fill:#FFD44C;}
	.st4{font-family:'Verdana';}
	.st5{font-size:32px;}
	.st6{font-size:55px;}
</style>
<path class="st0" d="M1792.8-62.5h-770.6c-3.7,0-6.7-3-6.7-6.7v-455.1c0-3.7,3-6.7,6.7-6.7h770.6c3.7,0,6.7,3,6.7,6.7v455.1
	C1799.5-65.5,1796.5-62.5,1792.8-62.5z"/>
<path class="st1" d="M1356.5-193.1h-48.1v-32.4c0-13.3,10.8-24.1,24.1-24.1l0,0c13.3,0,24.1,10.8,24.1,24.1L1356.5-193.1
	L1356.5-193.1z"/>
<line class="st0" x1="1015.5" y1="-506.7" x2="1799.5" y2="-506.7"/>
<rect x="1050.8" y="-211.7" class="st2" width="240" height="116"/>
<text transform="matrix(1 0 0 1 1071.7683 -142.9897)" class="st3 st4 st5">View Project</text>
<path class="st1" d="M1429.6-193.1h-48.1v-32.4c0-13.3,10.8-24.1,24.1-24.1l0,0c13.3,0,24.1,10.8,24.1,24.1L1429.6-193.1
	L1429.6-193.1z"/>
<path class="st1" d="M1502.6-193.1h-48.1v-32.4c0-13.3,10.8-24.1,24.1-24.1l0,0c13.3,0,24.1,10.8,24.1,24.1L1502.6-193.1
	L1502.6-193.1z"/>
<g>
	<text transform="matrix(1 -3.610000e-03 3.610000e-03 1 1128.3812 -431.4399)" class="st3 st4 st6">React Whack-A-Mole</text>
</g>
<rect x="1324" y="-211.7" class="st2" width="438.8" height="116"/>
<text transform="matrix(1 0 0 1 1411.8207 -163.99)" class="st3 st4 st5">React  JavaScript</text>
<text transform="matrix(1 0 0 1 1379.2527 -120.72)" class="st3 st4 st5"> HTML  CSS  Heroku</text>
<path class="st1" d="M1356.5-347.1h-48.1v-32.4c0-13.3,10.8-24.1,24.1-24.1l0,0c13.3,0,24.1,10.8,24.1,24.1L1356.5-347.1
	L1356.5-347.1z"/>
<path class="st1" d="M1429.6-347.1h-48.1v-32.4c0-13.3,10.8-24.1,24.1-24.1l0,0c13.3,0,24.1,10.8,24.1,24.1L1429.6-347.1
	L1429.6-347.1z"/>
<path class="st1" d="M1502.6-347.1h-48.1v-32.4c0-13.3,10.8-24.1,24.1-24.1l0,0c13.3,0,24.1,10.8,24.1,24.1L1502.6-347.1
	L1502.6-347.1z"/>
<path class="st1" d="M1356.5-270h-48.1v-32.4c0-13.3,10.8-24.1,24.1-24.1l0,0c13.3,0,24.1,10.8,24.1,24.1L1356.5-270L1356.5-270z"/>
<path class="st1" d="M1429.6-270h-48.1v-32.4c0-13.3,10.8-24.1,24.1-24.1l0,0c13.3,0,24.1,10.8,24.1,24.1L1429.6-270L1429.6-270z"/>
<path class="st1" d="M1502.6-270h-48.1v-32.4c0-13.3,10.8-24.1,24.1-24.1l0,0c13.3,0,24.1,10.8,24.1,24.1L1502.6-270L1502.6-270z"/>
</svg>
