<?xml version="1.0" encoding="utf-8"?>
<!-- Generator: Adobe Illustrator 19.0.0, SVG Export Plug-In . SVG Version: 6.00 Build 0)  -->
<svg version="1.1" id="Layer_1" xmlns="http://www.w3.org/2000/svg" xmlns:xlink="http://www.w3.org/1999/xlink" x="0px" y="0px"
	 viewBox="674 -357 793 477.5" style="enable-background:new 674 -357 793 477.5;" xml:space="preserve">
<style type="text/css">
	.st0{fill:none;stroke:#659DF7;stroke-width:9;stroke-miterlimit:10;}
	.st1{fill:#FFFFFF;stroke:#659DF7;stroke-width:9;stroke-miterlimit:10;}
</style>
<path class="st0" d="M1455.8,116H685.2c-3.7,0-6.7-3-6.7-6.7v-455.1c0-3.7,3-6.7,6.7-6.7h770.6c3.7,0,6.7,3,6.7,6.7v455.1
	C1462.5,113,1459.5,116,1455.8,116z"/>
<path class="st1" d="M1019.5-14.6h-48.1V-47c0-13.3,10.8-24.1,24.1-24.1h0c13.3,0,24.1,10.8,24.1,24.1V-14.6z"/>
<line class="st0" x1="678.5" y1="-328.2" x2="1462.5" y2="-328.2"/>
<path class="st1" d="M1092.6-14.6h-48.1V-47c0-13.3,10.8-24.1,24.1-24.1l0,0c13.3,0,24.1,10.8,24.1,24.1V-14.6z"/>
<path class="st1" d="M1165.6-14.6h-48.1V-47c0-13.3,10.8-24.1,24.1-24.1l0,0c13.3,0,24.1,10.8,24.1,24.1V-14.6z"/>
<path class="st1" d="M1019.5-168.6h-48.1V-201c0-13.3,10.8-24.1,24.1-24.1h0c13.3,0,24.1,10.8,24.1,24.1V-168.6z"/>
<path class="st1" d="M1092.6-168.6h-48.1V-201c0-13.3,10.8-24.1,24.1-24.1l0,0c13.3,0,24.1,10.8,24.1,24.1V-168.6z"/>
<path class="st1" d="M1165.6-168.6h-48.1V-201c0-13.3,10.8-24.1,24.1-24.1l0,0c13.3,0,24.1,10.8,24.1,24.1V-168.6z"/>
<path class="st1" d="M1019.5-91.5h-48.1v-32.4c0-13.3,10.8-24.1,24.1-24.1h0c13.3,0,24.1,10.8,24.1,24.1V-91.5z"/>
<path class="st1" d="M1092.6-91.5h-48.1v-32.4c0-13.3,10.8-24.1,24.1-24.1l0,0c13.3,0,24.1,10.8,24.1,24.1V-91.5z"/>
<path class="st1" d="M1165.6-91.5h-48.1v-32.4c0-13.3,10.8-24.1,24.1-24.1l0,0c13.3,0,24.1,10.8,24.1,24.1V-91.5z"/>
</svg>
